# xmcd
#
# Track frame offsets:
# 150
# 20187
# 41400
# 59242
# 75835
# 95362
# 121342
# 148455
# 177295
#
# Disc length: 2746 seconds
#
#
# Revision: 0
# Processed by: cddbd v1.5.2PL0 Copyright (c) Steve Scherf et al.
# Submitted via: FreeRIP 2.96 
#
DISCID=7c0ab809
DTITLE=Amy Tori - Don't Turn Your Back On Me
DYEAR=1900
DGENRE=Pop
TTITLE0=Radio Edit
TTITLE1=Original Radio
TTITLE2=Radio Remix
TTITLE3=Radio Remix Edit
TTITLE4=Radio Remix w/ Reggae
TTITLE5=Club Mix
TTITLE6=Club Dub
TTITLE7=Club Remix
TTITLE8=Latin Tribe Dub
EXTD=
EXTT0=
EXTT1=
EXTT2=
EXTT3=
EXTT4=
EXTT5=
EXTT6=
EXTT7=
EXTT8=
PLAYORDER=
